<svg width="32" height="32" viewBox="0 0 32 32" fill="none" xmlns="http://www.w3.org/2000/svg">
<path d="M15.5629 11.511C13.3318 11.511 11.5111 13.3318 11.5111 15.5629C11.5111 17.7939 13.3318 19.6147 15.5629 19.6147C17.7939 19.6147 19.6147 17.7939 19.6147 15.5629C19.6147 13.3318 17.7939 11.511 15.5629 11.511ZM27.7153 15.5629C27.7153 13.885 27.7305 12.2223 27.6362 10.5475C27.542 8.60213 27.0982 6.87563 25.6757 5.45308C24.2501 4.0275 22.5266 3.58676 20.5813 3.49253C18.9034 3.3983 17.2407 3.4135 15.5659 3.4135C13.888 3.4135 12.2254 3.3983 10.5505 3.49253C8.60518 3.58676 6.87868 4.03054 5.45614 5.45308C4.03056 6.87867 3.58981 8.60213 3.49558 10.5475C3.40136 12.2254 3.41655 13.888 3.41655 15.5629C3.41655 17.2377 3.40136 18.9034 3.49558 20.5782C3.58981 22.5236 4.0336 24.2501 5.45614 25.6726C6.88172 27.0982 8.60518 27.5389 10.5505 27.6332C12.2284 27.7274 13.8911 27.7122 15.5659 27.7122C17.2438 27.7122 18.9064 27.7274 20.5813 27.6332C22.5266 27.5389 24.2531 27.0952 25.6757 25.6726C27.1013 24.247 27.542 22.5236 27.6362 20.5782C27.7335 18.9034 27.7153 17.2407 27.7153 15.5629ZM15.5629 21.7971C12.1129 21.7971 9.32861 19.0128 9.32861 15.5629C9.32861 12.1129 12.1129 9.3286 15.5629 9.3286C19.0128 9.3286 21.7971 12.1129 21.7971 15.5629C21.7971 19.0128 19.0128 21.7971 15.5629 21.7971ZM22.0525 10.5292C21.247 10.5292 20.5965 9.87877 20.5965 9.07327C20.5965 8.26777 21.247 7.61729 22.0525 7.61729C22.8579 7.61729 23.5084 8.26777 23.5084 9.07327C23.5087 9.26454 23.4712 9.45398 23.3981 9.63073C23.325 9.80749 23.2178 9.96809 23.0825 10.1033C22.9473 10.2386 22.7867 10.3458 22.6099 10.4189C22.4332 10.492 22.2437 10.5295 22.0525 10.5292Z" fill="white"/>
</svg>
