<svg width="25" height="25" viewBox="0 0 26 27" fill="none" xmlns="http://www.w3.org/2000/svg">
<g clip-path="url(#clip0_1_474)">
<path d="M15.1143 13.3517L12.2743 12.0265C12.0265 11.9114 11.8229 12.0404 11.8229 12.3148V14.8109C11.8229 15.0853 12.0265 15.2143 12.2743 15.0992L15.1131 13.774C15.3622 13.6577 15.3622 13.468 15.1143 13.3517ZM13.0874 1.42383C6.3831 1.42383 0.948364 6.85857 0.948364 13.5628C0.948364 20.2671 6.3831 25.7019 13.0874 25.7019C19.7917 25.7019 25.2264 20.2671 25.2264 13.5628C25.2264 6.85857 19.7917 1.42383 13.0874 1.42383ZM13.0874 18.4943C6.87372 18.4943 6.76498 17.9342 6.76498 13.5628C6.76498 9.19153 6.87372 8.63137 13.0874 8.63137C19.301 8.63137 19.4098 9.19153 19.4098 13.5628C19.4098 17.9342 19.301 18.4943 13.0874 18.4943Z" fill="white"/>
</g>
<defs>
<clipPath id="clip0_1_474">
<rect width="25.2896" height="25.2896" fill="white" transform="translate(0.442627 0.917969)"/>
</clipPath>
</defs>
</svg>
