<svg width="50" height="50" viewBox="0 0 50 50" fill="none" xmlns="http://www.w3.org/2000/svg">
<path fill-rule="evenodd" clip-rule="evenodd" d="M0 10.9375C0 10.5231 0.16462 10.1257 0.457646 9.83265C0.750671 9.53962 1.1481 9.375 1.5625 9.375H3.125C10.0062 9.375 15.0844 13.25 18.3563 16.9313C19.8875 18.6563 21.0594 20.375 21.875 21.7187C22.6875 20.375 23.8625 18.6563 25.3938 16.9313C28.6656 13.25 33.7438 9.375 40.625 9.375V12.5C35.0062 12.5 30.7094 15.6562 27.7312 19.0062C26.1209 20.8302 24.7379 22.8428 23.6125 25C24.7369 27.157 26.1189 29.1696 27.7281 30.9938C30.7125 34.3438 35.0125 37.5 40.625 37.5V40.625C33.7438 40.625 28.6656 36.75 25.3938 33.0687C24.0797 31.5816 22.9021 29.9793 21.875 28.2812C21.0625 29.625 19.8875 31.3438 18.3563 33.0687C15.0844 36.75 10.0062 40.625 3.125 40.625H1.5625C1.1481 40.625 0.750671 40.4604 0.457646 40.1674C0.16462 39.8743 0 39.4769 0 39.0625C0 38.6481 0.16462 38.2507 0.457646 37.9576C0.750671 37.6646 1.1481 37.5 1.5625 37.5H3.125C8.74375 37.5 13.0406 34.3438 16.0187 30.9938C17.6291 29.1698 19.0121 27.1572 20.1375 25C19.0131 22.843 17.6311 20.8304 16.0219 19.0062C13.0375 15.6562 8.7375 12.5 3.125 12.5H1.5625C1.1481 12.5 0.750671 12.3354 0.457646 12.0424C0.16462 11.7493 0 11.3519 0 10.9375Z" fill="#303030"/>
<path d="M40.625 17.0812V4.79365C40.6251 4.6452 40.6674 4.49984 40.7471 4.37459C40.8268 4.24934 40.9405 4.14939 41.0749 4.08643C41.2094 4.02348 41.359 4.00012 41.5062 4.01911C41.6534 4.0381 41.7922 4.09865 41.9062 4.19365L49.2813 10.3374C49.6563 10.6499 49.6563 11.2249 49.2813 11.5374L41.9062 17.6812C41.7922 17.7762 41.6534 17.8367 41.5062 17.8557C41.359 17.8747 41.2094 17.8513 41.0749 17.7884C40.9405 17.7254 40.8268 17.6255 40.7471 17.5002C40.6674 17.375 40.6251 17.2296 40.625 17.0812ZM40.625 45.2062V32.9187C40.6251 32.7702 40.6674 32.6248 40.7471 32.4996C40.8268 32.3743 40.9405 32.2744 41.0749 32.2114C41.2094 32.1485 41.359 32.1251 41.5062 32.1441C41.6534 32.1631 41.7922 32.2236 41.9062 32.3187L49.2813 38.4624C49.6563 38.7749 49.6563 39.3499 49.2813 39.6624L41.9062 45.8062C41.7922 45.9012 41.6534 45.9617 41.5062 45.9807C41.359 45.9997 41.2094 45.9763 41.0749 45.9134C40.9405 45.8504 40.8268 45.7505 40.7471 45.6252C40.6674 45.5 40.6251 45.3546 40.625 45.2062Z" fill="#303030"/>
</svg>
